<?xml version="1.0" encoding="UTF-8" standalone="no"?>
<!-- Generator: Adobe Illustrator 26.2.0, SVG Export Plug-In . SVG Version: 6.00 Build 0)  -->

<svg
   version="1.1"
   id="Calque_1"
   x="0px"
   y="0px"
   viewBox="0 0 66.6604 66.676826"
   xml:space="preserve"
   sodipodi:docname="tcl-parc-relais.svg"
   width="66.6604"
   height="66.676826"
   inkscape:version="1.3.2 (091e20e, 2023-11-25, custom)"
   xmlns:inkscape="http://www.inkscape.org/namespaces/inkscape"
   xmlns:sodipodi="http://sodipodi.sourceforge.net/DTD/sodipodi-0.dtd"
   xmlns="http://www.w3.org/2000/svg"
   xmlns:svg="http://www.w3.org/2000/svg"><defs
   id="defs21" /><sodipodi:namedview
   id="namedview21"
   pagecolor="#ffffff"
   bordercolor="#000000"
   borderopacity="0.25"
   inkscape:showpageshadow="2"
   inkscape:pageopacity="0.0"
   inkscape:pagecheckerboard="0"
   inkscape:deskcolor="#d1d1d1"
   inkscape:zoom="5.5463908"
   inkscape:cx="54.269526"
   inkscape:cy="27.495358"
   inkscape:window-width="1366"
   inkscape:window-height="697"
   inkscape:window-x="1358"
   inkscape:window-y="-8"
   inkscape:window-maximized="1"
   inkscape:current-layer="layer1" />
<style
   type="text/css"
   id="style1">
	.st0{fill-rule:evenodd;clip-rule:evenodd;fill:#E20613;}
	.st1{fill:#FFFFFF;}
	.st2{fill:#575756;}
</style>



<g
   id="use21"
   transform="matrix(0.9803,0,0,-0.9803,50.973051,50.027552)">
	
		
	
		<g
   id="use38"
   transform="translate(-17.9974,17.0329)">
	<path
   class="st0"
   d="m -22.7,-34 c -3,0 -5.9,1.2 -8,3.3 -2.1,2.1 -3.3,5 -3.3,8 V 34 h 56.7 c 3,0 5.9,-1.2 8,-3.3 2.1,-2.1 3.3,-5 3.3,-8 V -34 Z"
   id="path39" />
	<polygon
   class="st1"
   points="-14.5,1.8 -15.1,0.5 -8.5,0.5 -7.7,1.9 "
   id="polygon39" />
	<polygon
   class="st1"
   points="-13.5,3.7 -14.1,2.4 -7.5,2.4 -6.8,3.7 "
   id="polygon40" />
	<polygon
   class="st1"
   points="-12.5,5.6 -13.2,4.3 -6.5,4.2 -5.8,5.6 "
   id="polygon41" />
	<polygon
   class="st1"
   points="-10.8,-3.9 -17.5,-4 -18.1,-5.2 -11.5,-5.2 "
   id="polygon42" />
	<polygon
   class="st1"
   points="-20.5,-9.7 -21.1,-11 -14.5,-11 -13.8,-9.7 "
   id="polygon43" />
	<polygon
   class="st1"
   points="-18.4,-5.8 -19.2,-7.2 -12.5,-7.3 -11.7,-5.7 "
   id="polygon44" />
	<polygon
   class="st1"
   points="-19.5,-7.8 -20.2,-9.1 -13.5,-9.2 -12.8,-7.8 "
   id="polygon45" />
	<polygon
   class="st1"
   points="-15.5,-0.1 -16.2,-1.4 -9.5,-1.5 -8.7,0 "
   id="polygon46" />
	<polygon
   class="st1"
   points="-16.5,-2 -17.2,-3.4 -10.5,-3.4 -9.8,-2 "
   id="polygon47" />
	<path
   class="st1"
   d="m -1,-1.4 c 0,0 0.5,1.1 1.6,1.1 H 6.2 L 6.4,0.1 -6.9,0 -7.7,-1.5 h 6.6"
   id="path47" />
	<path
   class="st1"
   d="M -2.3,-3.8 -9,-3.9 -9.7,-5.3 h 7.2 c -0.3,0.5 0.2,1.4 0.2,1.5"
   id="path48" />
	<polyline
   class="st1"
   points="-6.7,0.4 6.6,0.4 7.5,2 -5.9,1.9  "
   id="polyline48" />
	<polyline
   class="st1"
   points="-1.3,-1.9 -7.9,-2 -8.7,-3.4 -2.1,-3.5  "
   id="polyline49" />
	<path
   class="st1"
   d="m -5.6,2.4 v 0 L 7.6,2.3 8.5,3.9 -4.5,3.8 C -5.2,3.1 -5.6,2.4 -5.6,2.4"
   id="path49" />
	<path
   class="st1"
   d="m 20.8,11.3 h -5.1 -1.6 v 0 H -18.5 L -19.2,10 13.4,9.9 13.3,9.7 -19.5,9.3 -20.1,8.1 12.4,8 12.3,7.8 -20.5,7.4 -21.1,6.2 H 11.5 L 5.4,-5.6 v 0 0 0 0 -0.1 h -6.8 c 0,0 -0.1,0 -0.1,0 l -8.4,-0.1 -0.8,-1.6 H 4.5 L 4.4,-7.6 -11,-7.8 c -0.1,-0.4 -0.2,-0.9 -0.1,-1.4 L 3.5,-9.3 3.4,-9.5 -10.9,-9.6 c 0.3,-0.7 0.8,-1.2 1.8,-1.4 H 2.6 v 0 h 6.7 v 0 h 8.9 l 2.8,5.4 h -8.9 z"
   id="path50" />
	<path
   class="st1"
   d="M 9.1,4.9 H 2.3 -1.6 C -2.5,4.9 -3.3,4.6 -3.9,4.2 L 8.7,4.1"
   id="path51" />
</g>
</g>
<g
   inkscape:groupmode="layer"
   id="layer1"
   inkscape:label="P+R"
   transform="translate(-0.19084978,-0.08964113)"><rect
     style="fill:#4565ac;fill-opacity:1;stroke-width:0.82061"
     id="rect51"
     width="24.731657"
     height="15.968064"
     x="42.109661"
     y="50.798405" /><text
     xml:space="preserve"
     style="font-style:normal;font-variant:normal;font-weight:normal;font-stretch:normal;font-size:9.04307px;font-family:Consolas;-inkscape-font-specification:Consolas;fill:#ffffff;fill-opacity:1;stroke-width:1.13038"
     x="51.903954"
     y="66.268867"
     id="text52"
     transform="scale(1.0080751,0.99198959)"><tspan
       sodipodi:role="line"
       id="tspan52"
       x="51.903954"
       y="66.268867"
       style="font-style:normal;font-variant:normal;font-weight:normal;font-stretch:normal;font-size:9.04307px;font-family:Tahoma;-inkscape-font-specification:Tahoma;fill:#ffffff;stroke-width:1.13038">+R</tspan></text><path
     id="text51"
     style="font-style:normal;font-variant:normal;font-weight:normal;font-stretch:normal;font-size:18.6667px;font-family:Tahoma;-inkscape-font-specification:Tahoma;fill:#ffffff;fill-opacity:1;stroke-width:1.03716"
     d="m 45.655537,52.272013 v 13.570313 h 1.94132 v -5.058594 h 1.647179 c 1.039292,0 1.898131,-0.118489 2.57792,-0.355469 0.679789,-0.236979 1.272034,-0.585069 1.77534,-1.046875 0.398723,-0.37066 0.708502,-0.817274 0.93074,-1.339843 0.228776,-0.528647 0.344563,-1.088325 0.344563,-1.677735 0,-0.753473 -0.155005,-1.395182 -0.462218,-1.923828 -0.307213,-0.534723 -0.730679,-0.973958 -1.273203,-1.320312 -0.464087,-0.297744 -1.001473,-0.514757 -1.609361,-0.648438 -0.607888,-0.133681 -1.343236,-0.199219 -2.206045,-0.199219 z m 1.94132,1.548828 h 1.60726 c 0.607888,0 1.115861,0.04015 1.52112,0.119141 0.411795,0.07899 0.770597,0.212023 1.07781,0.400391 0.352967,0.21875 0.613723,0.501302 0.78367,0.847656 0.176484,0.346354 0.264726,0.752821 0.264726,1.220703 0,0.431424 -0.06466,0.808811 -0.195392,1.130859 -0.130729,0.322049 -0.340594,0.619141 -0.628198,0.892579 -0.320285,0.303819 -0.722274,0.517144 -1.20597,0.638671 -0.483697,0.115452 -1.117028,0.173829 -1.901401,0.173829 h -1.323625 z" /></g></svg>
